<svg width="76" height="23" viewBox="0 0 76 23" fill="none" xmlns="http://www.w3.org/2000/svg">
<g clip-path="url(#clip0_3086_32)">
<path d="M14.0561 21.9092H11.968V6.96806H2.91518V21.9092H0.793732V5.05057H14.0561V21.9092Z" fill="black"/>
<path d="M19.0164 7.12105C20.4174 5.55582 22.3154 4.77155 24.717 4.77155C27.1186 4.77155 29.0166 5.55582 30.4175 7.12105C31.8185 8.68629 32.5156 10.8098 32.5156 13.4883C32.5156 16.1668 31.8152 18.287 30.4175 19.8489C29.0166 21.4109 27.1186 22.1918 24.717 22.1918C22.3154 22.1918 20.4174 21.4109 19.0164 19.8489C17.6155 18.287 16.9183 16.1668 16.9183 13.4883C16.9183 10.8098 17.6188 8.68629 19.0164 7.12105ZM28.8265 8.54007C27.8124 7.32045 26.4448 6.7123 24.717 6.7123C22.9891 6.7123 21.6182 7.32045 20.6075 8.54007C19.5935 9.75968 19.0898 11.408 19.0898 13.4883C19.0898 15.5687 19.5968 17.207 20.6075 18.4233C21.6215 19.6429 22.9891 20.2511 24.717 20.2511C26.4448 20.2511 27.8158 19.6429 28.8265 18.4233C29.8405 17.2037 30.3442 15.5587 30.3442 13.4883C30.3442 11.418 29.8372 9.75968 28.8265 8.54007Z" fill="black"/>
<path d="M45.788 21.9091L40.9914 7.72563H40.9214L36.1248 21.9091H33.9099L39.914 5.05045H42.0021L48.0062 21.9091H45.7914H45.788Z" fill="black"/>
<path d="M60.5413 20.0183V21.9125H50.0575V5.05054H60.5413V6.94477H52.169V12.355H60.1077V14.2259H52.169V20.0216H60.5413V20.0183ZM56.3552 3.6847H54.5506L57.129 0.308319H59.4039L56.3552 3.6847Z" fill="black"/>
<path d="M69.9474 21.9091H67.836V6.94467H62.499V5.05045H75.2811V6.94467H69.9441V21.9124L69.9474 21.9091Z" fill="black"/>
</g>
<defs>
<clipPath id="clip0_3086_32">
<rect width="74.4875" height="21.8833" fill="white" transform="translate(0.793732 0.308319)"/>
</clipPath>
</defs>
</svg>
