<svg width="63" height="6" viewBox="0 0 63 6" fill="none" xmlns="http://www.w3.org/2000/svg">
<path d="M1.87801 2.92226V2.30745H2.51584C3.05832 2.30745 3.43312 1.98854 3.43312 1.53154C3.43312 1.07783 3.09448 0.795083 2.54872 0.795083C1.99308 0.795083 1.63472 1.08441 1.59198 1.55456H0.894973C0.944289 0.706313 1.5854 0.180272 2.57173 0.180272C3.50545 0.180272 4.15972 0.706313 4.15972 1.45592C4.15972 1.98525 3.80135 2.42581 3.27531 2.55075V2.57705C3.90985 2.65596 4.30438 3.10638 4.30438 3.75078C4.30438 4.54971 3.55148 5.15465 2.55858 5.15465C1.52622 5.15465 0.816066 4.59902 0.773325 3.76393H1.48348C1.52622 4.23079 1.94706 4.52998 2.55529 4.52998C3.14709 4.52998 3.5482 4.19791 3.5482 3.71461C3.5482 3.21816 3.1701 2.92226 2.53556 2.92226H1.87801ZM8.07544 5.03958L7.64146 3.75735H5.83319L5.3992 5.03958H4.63316L6.34608 0.295343H7.14172L8.85464 5.03958H8.07544ZM6.72746 1.08441L6.02059 3.16556H7.45405L6.74719 1.08441H6.72746ZM10.9325 2.55732L13.2142 5.03958H12.2509L10.2059 2.81377H10.1796V5.03958H9.44315V0.295343H10.1796V2.41924H10.2059L12.1391 0.295343H13.0202L10.9325 2.55732ZM16.8472 5.03958L16.4132 3.75735H14.6049L14.1709 5.03958H13.4049L15.1178 0.295343H15.9135L17.6264 5.03958H16.8472ZM15.4992 1.08441L14.7923 3.16556H16.2258L15.5189 1.08441H15.4992ZM19.0598 2.92226V2.30745H19.6977C20.2402 2.30745 20.615 1.98854 20.615 1.53154C20.615 1.07783 20.2763 0.795083 19.7306 0.795083C19.1749 0.795083 18.8166 1.08441 18.7738 1.55456H18.0768C18.1261 0.706313 18.7672 0.180272 19.7536 0.180272C20.6873 0.180272 21.3416 0.706313 21.3416 1.45592C21.3416 1.98525 20.9832 2.42581 20.4571 2.55075V2.57705C21.0917 2.65596 21.4862 3.10638 21.4862 3.75078C21.4862 4.54971 20.7333 5.15465 19.7404 5.15465C18.7081 5.15465 17.9979 4.59902 17.9552 3.76393H18.6653C18.7081 4.23079 19.1289 4.52998 19.7371 4.52998C20.3289 4.52998 20.73 4.19791 20.73 3.71461C20.73 3.21816 20.3519 2.92226 19.7174 2.92226H19.0598ZM25.2573 5.03958L24.8233 3.75735H23.015L22.581 5.03958H21.815L23.5279 0.295343H24.3236L26.0365 5.03958H25.2573ZM23.9093 1.08441L23.2024 3.16556H24.6359L23.929 1.08441H23.9093ZM27.9664 5.03958H27.2299V0.929881H25.7767V0.295343H29.4163V0.929881H27.9664V5.03958ZM30.0837 5.03958V0.295343H30.8202V1.99512H31.892C32.8257 1.99512 33.48 2.6165 33.48 3.51735C33.48 4.41819 32.8389 5.03958 31.915 5.03958H30.0837ZM30.8202 4.41491H31.721C32.3588 4.41491 32.7238 4.09271 32.7238 3.51735C32.7238 2.9387 32.3555 2.6165 31.721 2.6165H30.8202V4.41491ZM36.4324 2.92226V2.30745H37.0702C37.6127 2.30745 37.9875 1.98854 37.9875 1.53154C37.9875 1.07783 37.6488 0.795083 37.1031 0.795083C36.5474 0.795083 36.1891 1.08441 36.1463 1.55456H35.4493C35.4986 0.706313 36.1398 0.180272 37.1261 0.180272C38.0598 0.180272 38.7141 0.706313 38.7141 1.45592C38.7141 1.98525 38.3557 2.42581 37.8297 2.55075V2.57705C38.4642 2.65596 38.8587 3.10638 38.8587 3.75078C38.8587 4.54971 38.1058 5.15465 37.1129 5.15465C36.0806 5.15465 35.3704 4.59902 35.3277 3.76393H36.0378C36.0806 4.23079 36.5014 4.52998 37.1096 4.52998C37.7014 4.52998 38.1026 4.19791 38.1026 3.71461C38.1026 3.21816 37.7245 2.92226 37.0899 2.92226H36.4324ZM41.4758 5.03958H39.5722V0.295343H41.4659C42.3076 0.295343 42.8599 0.762205 42.8599 1.47894C42.8599 1.98196 42.4884 2.43239 42.015 2.51129V2.5376C42.6594 2.60993 43.0934 3.06693 43.0934 3.69818C43.0934 4.53327 42.4851 5.03958 41.4758 5.03958ZM40.3086 0.897003V2.31403H41.1339C41.7717 2.31403 42.1235 2.05101 42.1235 1.58086C42.1235 1.1403 41.821 0.897003 41.2884 0.897003H40.3086ZM40.3086 4.43792H41.3246C41.9887 4.43792 42.3405 4.16504 42.3405 3.65215C42.3405 3.13926 41.9788 2.87624 41.2818 2.87624H40.3086V4.43792ZM45.8452 0.216437C47.2096 0.216437 48.0678 1.16002 48.0678 2.66911C48.0678 4.17819 47.2096 5.11849 45.8452 5.11849C44.4775 5.11849 43.6227 4.17819 43.6227 2.66911C43.6227 1.16002 44.4775 0.216437 45.8452 0.216437ZM45.8452 0.864126C44.9444 0.864126 44.3756 1.56113 44.3756 2.66911C44.3756 3.77379 44.9444 4.4708 45.8452 4.4708C46.7461 4.4708 47.3116 3.77379 47.3116 2.66911C47.3116 1.56113 46.7461 0.864126 45.8452 0.864126ZM52.7462 5.03958H52.0098V2.9387H49.5736V5.03958H48.8371V0.295343H49.5736V2.30088H52.0098V0.295343H52.7462V5.03958ZM55.7348 0.216437C57.0992 0.216437 57.9573 1.16002 57.9573 2.66911C57.9573 4.17819 57.0992 5.11849 55.7348 5.11849C54.3671 5.11849 53.5123 4.17819 53.5123 2.66911C53.5123 1.16002 54.3671 0.216437 55.7348 0.216437ZM55.7348 0.864126C54.834 0.864126 54.2652 1.56113 54.2652 2.66911C54.2652 3.77379 54.834 4.4708 55.7348 4.4708C56.6357 4.4708 57.2012 3.77379 57.2012 2.66911C57.2012 1.56113 56.6357 0.864126 55.7348 0.864126ZM60.216 2.55732L62.4977 5.03958H61.5344L59.4894 2.81377H59.4631V5.03958H58.7267V0.295343H59.4631V2.41924H59.4894L61.4226 0.295343H62.3038L60.216 2.55732Z" fill="black"/>
</svg>
